<mxfile host="app.diagrams.net" modified="2023-12-08T09:52:01.830Z" agent="Mozilla/5.0 (Macintosh; Intel Mac OS X 10_15_7) AppleWebKit/537.36 (KHTML, like Gecko) Chrome/117.0.0.0 Safari/537.36" etag="OcIytGudbxqyYRLdKrYj" version="22.1.7" type="github">
  <diagram name="第 1 页" id="SA8fMQaJLo_MwNopq_l4">
    <mxGraphModel dx="707" dy="433" grid="1" gridSize="10" guides="1" tooltips="1" connect="1" arrows="1" fold="1" page="1" pageScale="1" pageWidth="827" pageHeight="1169" math="0" shadow="0">
      <root>
        <mxCell id="0" />
        <mxCell id="1" parent="0" />
        <mxCell id="_jsNsss_4a5eMQctXcPU-1" value="识别哪些信息可以自动获取，哪些信息需要用户输入" style="rounded=1;whiteSpace=wrap;html=1;" vertex="1" parent="1">
          <mxGeometry x="240" y="140" width="120" height="60" as="geometry" />
        </mxCell>
        <mxCell id="_jsNsss_4a5eMQctXcPU-14" style="edgeStyle=orthogonalEdgeStyle;rounded=0;orthogonalLoop=1;jettySize=auto;html=1;" edge="1" parent="1" source="_jsNsss_4a5eMQctXcPU-2" target="_jsNsss_4a5eMQctXcPU-4">
          <mxGeometry relative="1" as="geometry" />
        </mxCell>
        <mxCell id="_jsNsss_4a5eMQctXcPU-2" value="操作系统信息" style="rounded=1;whiteSpace=wrap;html=1;" vertex="1" parent="1">
          <mxGeometry x="240" y="260" width="120" height="60" as="geometry" />
        </mxCell>
        <mxCell id="_jsNsss_4a5eMQctXcPU-15" style="edgeStyle=orthogonalEdgeStyle;rounded=0;orthogonalLoop=1;jettySize=auto;html=1;" edge="1" parent="1" source="_jsNsss_4a5eMQctXcPU-3" target="_jsNsss_4a5eMQctXcPU-4">
          <mxGeometry relative="1" as="geometry" />
        </mxCell>
        <mxCell id="_jsNsss_4a5eMQctXcPU-3" value="python版本信息" style="rounded=1;whiteSpace=wrap;html=1;" vertex="1" parent="1">
          <mxGeometry x="240" y="380" width="120" height="60" as="geometry" />
        </mxCell>
        <mxCell id="_jsNsss_4a5eMQctXcPU-13" style="edgeStyle=orthogonalEdgeStyle;rounded=0;orthogonalLoop=1;jettySize=auto;html=1;" edge="1" parent="1" source="_jsNsss_4a5eMQctXcPU-4" target="_jsNsss_4a5eMQctXcPU-8">
          <mxGeometry relative="1" as="geometry" />
        </mxCell>
        <mxCell id="_jsNsss_4a5eMQctXcPU-4" value="执行依赖安装&lt;br&gt;获取requirements.txt" style="rounded=1;whiteSpace=wrap;html=1;" vertex="1" parent="1">
          <mxGeometry x="400" y="320" width="120" height="60" as="geometry" />
        </mxCell>
        <mxCell id="_jsNsss_4a5eMQctXcPU-17" style="edgeStyle=orthogonalEdgeStyle;rounded=0;orthogonalLoop=1;jettySize=auto;html=1;" edge="1" parent="1" source="_jsNsss_4a5eMQctXcPU-6" target="_jsNsss_4a5eMQctXcPU-16">
          <mxGeometry relative="1" as="geometry" />
        </mxCell>
        <mxCell id="_jsNsss_4a5eMQctXcPU-6" value="AI识别错误信息" style="rounded=1;whiteSpace=wrap;html=1;" vertex="1" parent="1">
          <mxGeometry x="560" y="440" width="120" height="60" as="geometry" />
        </mxCell>
        <mxCell id="_jsNsss_4a5eMQctXcPU-7" value="提示完成" style="rounded=1;whiteSpace=wrap;html=1;" vertex="1" parent="1">
          <mxGeometry x="760" y="320" width="120" height="60" as="geometry" />
        </mxCell>
        <mxCell id="_jsNsss_4a5eMQctXcPU-9" style="edgeStyle=orthogonalEdgeStyle;rounded=0;orthogonalLoop=1;jettySize=auto;html=1;" edge="1" parent="1" source="_jsNsss_4a5eMQctXcPU-8" target="_jsNsss_4a5eMQctXcPU-6">
          <mxGeometry relative="1" as="geometry" />
        </mxCell>
        <mxCell id="_jsNsss_4a5eMQctXcPU-10" value="否" style="edgeLabel;html=1;align=center;verticalAlign=middle;resizable=0;points=[];" vertex="1" connectable="0" parent="_jsNsss_4a5eMQctXcPU-9">
          <mxGeometry x="-0.0978" y="-1" relative="1" as="geometry">
            <mxPoint as="offset" />
          </mxGeometry>
        </mxCell>
        <mxCell id="_jsNsss_4a5eMQctXcPU-11" style="edgeStyle=orthogonalEdgeStyle;rounded=0;orthogonalLoop=1;jettySize=auto;html=1;" edge="1" parent="1" source="_jsNsss_4a5eMQctXcPU-8" target="_jsNsss_4a5eMQctXcPU-7">
          <mxGeometry relative="1" as="geometry" />
        </mxCell>
        <mxCell id="_jsNsss_4a5eMQctXcPU-12" value="是" style="edgeLabel;html=1;align=center;verticalAlign=middle;resizable=0;points=[];" vertex="1" connectable="0" parent="_jsNsss_4a5eMQctXcPU-11">
          <mxGeometry x="0.0132" relative="1" as="geometry">
            <mxPoint as="offset" />
          </mxGeometry>
        </mxCell>
        <mxCell id="_jsNsss_4a5eMQctXcPU-8" value="安装完成？" style="rhombus;whiteSpace=wrap;html=1;" vertex="1" parent="1">
          <mxGeometry x="580" y="310" width="80" height="80" as="geometry" />
        </mxCell>
        <mxCell id="_jsNsss_4a5eMQctXcPU-20" style="edgeStyle=orthogonalEdgeStyle;rounded=0;orthogonalLoop=1;jettySize=auto;html=1;" edge="1" parent="1" source="_jsNsss_4a5eMQctXcPU-16" target="_jsNsss_4a5eMQctXcPU-18">
          <mxGeometry relative="1" as="geometry" />
        </mxCell>
        <mxCell id="_jsNsss_4a5eMQctXcPU-16" value="返回固定格式命令" style="rounded=1;whiteSpace=wrap;html=1;" vertex="1" parent="1">
          <mxGeometry x="560" y="560" width="120" height="60" as="geometry" />
        </mxCell>
        <mxCell id="_jsNsss_4a5eMQctXcPU-22" style="edgeStyle=orthogonalEdgeStyle;rounded=0;orthogonalLoop=1;jettySize=auto;html=1;" edge="1" parent="1" source="_jsNsss_4a5eMQctXcPU-18" target="_jsNsss_4a5eMQctXcPU-19">
          <mxGeometry relative="1" as="geometry" />
        </mxCell>
        <mxCell id="_jsNsss_4a5eMQctXcPU-18" value="提示是否需要执行&lt;br&gt;执行安装命令" style="rounded=1;whiteSpace=wrap;html=1;" vertex="1" parent="1">
          <mxGeometry x="400" y="560" width="120" height="60" as="geometry" />
        </mxCell>
        <mxCell id="_jsNsss_4a5eMQctXcPU-23" style="edgeStyle=orthogonalEdgeStyle;rounded=0;orthogonalLoop=1;jettySize=auto;html=1;" edge="1" parent="1" source="_jsNsss_4a5eMQctXcPU-19" target="_jsNsss_4a5eMQctXcPU-4">
          <mxGeometry relative="1" as="geometry" />
        </mxCell>
        <mxCell id="_jsNsss_4a5eMQctXcPU-19" value="判断安装是否成功" style="rounded=1;whiteSpace=wrap;html=1;" vertex="1" parent="1">
          <mxGeometry x="400" y="440" width="120" height="60" as="geometry" />
        </mxCell>
      </root>
    </mxGraphModel>
  </diagram>
</mxfile>
